# xmcd
#
# Track frame offsets: 
#        150
#        17619
#        41028
#        61710
#        79557
#        93165
#        106584
#        123810
#        138471
#        154914
#        169251
#        183534
#        192552
#        208185
#        226140
#        243042
#
# Disc length: 3611 seconds
#
# Revision: 0
# Processed by: cddbd v1.5.2PL0 Copyright (c) Steve Scherf et al.
# Submitted via: ExactAudioCopy v0.95b4
#
DISCID=c60e1910
DTITLE=Nathan James - Make a Change Sometime
DYEAR=2005
DGENRE=Blues
TTITLE0=Get Right Church
TTITLE1=Everybody Make a Change Sometime
TTITLE2=Hard Time Here
TTITLE3=Lonesome Blues
TTITLE4=Mama Let Me Lay it On You
TTITLE5=Curley's Blues
TTITLE6=Please Baby
TTITLE7=Keepin' to Herself
TTITLE8=Europe Blues
TTITLE9=Pains My Heart To Love You
TTITLE10=Rub a Dub
TTITLE11=Here's Your Breakthough
TTITLE12=Mistreatin' Mama
TTITLE13=Converted
TTITLE14=The Well
TTITLE15=Finished Last
EXTD=
EXTT0=
EXTT1=
EXTT2=
EXTT3=
EXTT4=
EXTT5=
EXTT6=
EXTT7=
EXTT8=
EXTT9=
EXTT10=
EXTT11=
EXTT12=
EXTT13=
EXTT14=
EXTT15=
PLAYORDER=
